<svg id="LightLabel" xmlns="http://www.w3.org/2000/svg" viewBox="0 0 886.51 233.54"><defs><style>.cls-1{fill:#fff;}.cls-2{fill:#09c880;}</style></defs><path class="cls-1" d="M194.34,53.83,163.29,35.9v54L147.57,99,96.74,128.33,54.43,152.76v53.89l7.79,4.51L101,233.54h0l101-58.32v-117Zm-31.05,99-15.72,9.09L96.74,191.23V173.09l50.83-29.35,15.72-9.08Z"/><polygon class="cls-2" points="139.87 22.38 96.74 47.28 54.43 71.71 38.71 80.78 0 103.14 0 58.38 38.71 36.02 54.43 26.95 96.74 2.53 101.11 0 139.87 22.38"/><polygon class="cls-2" points="147.57 36.08 147.57 80.84 96.74 110.19 54.43 134.61 38.71 143.68 0 166.04 0 121.28 38.71 98.92 54.43 89.85 96.74 65.43 147.57 36.08"/><polygon class="cls-2" points="38.71 161.83 38.71 197.57 7.75 179.71 38.71 161.83"/><path class="cls-2" d="M283.62,68.21V83.68H243.79v24.51h30.53v15.19H243.79v40.38H224.62V68.21Z"/><path class="cls-2" d="M311.14,160.14a35,35,0,0,1-13.76-13.76,41.24,41.24,0,0,1-5-20.54,40.37,40.37,0,0,1,5.13-20.53,35.69,35.69,0,0,1,14-13.76,43,43,0,0,1,39.7,0,35.69,35.69,0,0,1,14,13.76,40.37,40.37,0,0,1,5.14,20.53,39.57,39.57,0,0,1-5.27,20.54,36.62,36.62,0,0,1-14.24,13.76A41.43,41.43,0,0,1,330.85,165,39.93,39.93,0,0,1,311.14,160.14Zm29.5-14.38a18.34,18.34,0,0,0,7.32-7.6,25.52,25.52,0,0,0,2.74-12.32q0-10.8-5.68-16.63a18.67,18.67,0,0,0-13.89-5.82,18.24,18.24,0,0,0-13.76,5.82q-5.55,5.82-5.55,16.63t5.41,16.64a17.82,17.82,0,0,0,13.62,5.82A19.94,19.94,0,0,0,340.64,145.76Z"/><path class="cls-2" d="M384.38,105.24a34.26,34.26,0,0,1,13.28-13.69,38.38,38.38,0,0,1,19.44-4.86q14.08,0,23.34,7t12.39,19.78H432.15a15.09,15.09,0,0,0-5.54-7.73A16.11,16.11,0,0,0,417,103a15.82,15.82,0,0,0-13,6q-4.79,6-4.79,16.9T404,142.61a15.82,15.82,0,0,0,13,6q11.63,0,15.19-10.41h20.68a35.07,35.07,0,0,1-12.46,19.58Q431.06,165,417.1,165a38.38,38.38,0,0,1-19.44-4.86,34.26,34.26,0,0,1-13.28-13.69,42.51,42.51,0,0,1-4.79-20.61A42.5,42.5,0,0,1,384.38,105.24Z"/><path class="cls-2" d="M466.58,105.17A33.67,33.67,0,0,1,479,91.48a33.2,33.2,0,0,1,17.59-4.79,30.78,30.78,0,0,1,14.85,3.43,30,30,0,0,1,10.2,8.62V87.92H541v75.84H521.68V152.68a28.46,28.46,0,0,1-10.2,8.83,31.27,31.27,0,0,1-15,3.49A32.27,32.27,0,0,1,479,160.07a34.53,34.53,0,0,1-12.46-13.9,44.55,44.55,0,0,1-4.58-20.6A43.88,43.88,0,0,1,466.58,105.17Zm52.37,8.7a19.39,19.39,0,0,0-7.4-7.67,19.73,19.73,0,0,0-10-2.67,19.23,19.23,0,0,0-17.18,10.2,23.81,23.81,0,0,0-2.81,11.84,24.58,24.58,0,0,0,2.81,12,20.15,20.15,0,0,0,7.39,7.87,18.75,18.75,0,0,0,9.79,2.74,19.73,19.73,0,0,0,10-2.67,19.33,19.33,0,0,0,7.4-7.67,24.63,24.63,0,0,0,2.73-12A24.62,24.62,0,0,0,519,113.87Z"/><path class="cls-2" d="M578.9,62.46v101.3H559.74V62.46Z"/><path class="cls-1" d="M657.69,74.1a42,42,0,0,1,17.66,16.77q6.23,10.88,6.23,25.26t-6.23,25.11a42.31,42.31,0,0,1-17.66,16.64q-11.43,5.88-26.49,5.88H597.8V68.21h33.4Q646.26,68.21,657.69,74.1Zm-3.9,65.16Q662,131,662,116.13t-8.21-23.35q-8.22-8.41-23.28-8.41H617v63.1h13.55Q645.57,147.47,653.79,139.26Z"/><path class="cls-1" d="M697.25,75.67a11.24,11.24,0,0,1,0-16,12.62,12.62,0,0,1,16.84,0,11.24,11.24,0,0,1,0,16,12.62,12.62,0,0,1-16.84,0Zm17.86,12.25v75.84H696V87.92Z"/><path class="cls-1" d="M765.63,146.1l19.16-58.18h20.4l-28.06,75.84H753.86L725.93,87.92h20.53Z"/><path class="cls-1" d="M886,131.59H830.52q.68,8.22,5.75,12.87a17.69,17.69,0,0,0,12.46,4.66q10.66,0,15.19-9.18h20.67A34.55,34.55,0,0,1,872,158Q862.69,165,849.14,165a39.57,39.57,0,0,1-19.65-4.86,34.19,34.19,0,0,1-13.55-13.76,42.16,42.16,0,0,1-4.86-20.54,42.92,42.92,0,0,1,4.79-20.67,33.46,33.46,0,0,1,13.42-13.69,43.06,43.06,0,0,1,39.22-.13,32.74,32.74,0,0,1,13.28,13.21,40,40,0,0,1,4.72,19.64A45.73,45.73,0,0,1,886,131.59Zm-19.3-12.86a15.21,15.21,0,0,0-5.34-11.85,18.94,18.94,0,0,0-12.73-4.44,17.37,17.37,0,0,0-12,4.31q-4.86,4.31-6,12Z"/></svg>