<svg version="1.2" xmlns="http://www.w3.org/2000/svg" viewBox="0 0 1227 503" width="1227" height="503">
	<title>FINOVA_HZTAL-svg</title>
	<defs>
		<clipPath clipPathUnits="userSpaceOnUse" id="cp1">
			<path d="m-171-284h1587.4v1122.52h-1587.4z"/>
		</clipPath>
	</defs>
	<style>
		.s0 { fill: #ec671c } 
		.s1 { fill: #672f01 } 
	</style>
	<g id="g8">
		<g id="g10">
			<g id="Clip-Path: g12" clip-path="url(#cp1)">
				<g id="g12">
					<g id="g18">
						<path id="path20" class="s0" d="m514.5 341.2v-161.1c1.1 0 2.2-0.1 3.2-0.1 12.9 0 25.8 0 38.7-0.1 2.1 0 3.4 0.7 4.6 2.3 20.8 25.8 41.7 51.6 62.6 77.4 0.3 0.5 0.5 0.9 0.8 1.4q0.4-0.2 0.8-0.3v-80.5h48.8v161.2h-3.4c-12.1 0-24.2-0.1-36.4 0.1-2.5 0-4.1-0.9-5.7-2.8-20.8-25.3-41.8-50.5-62.7-75.7-0.6-0.7-1.2-1.4-2.4-2.7v80.9z"/>
					</g>
					<g id="g22">
						<path id="path24" fill-rule="evenodd" class="s0" d="m781.9 344.9c-15.7-0.1-31.3-3-45.6-10.5-21.5-11.2-35-28.5-40.2-51.7-5.5-24.1-3.1-47.3 10.2-68.7 9.4-14.9 22.8-25.3 39.5-31.2 26-9.1 52.1-8.9 77.5 1.8 23.8 10 38.9 27.7 45.1 52.2 6.2 24.5 3.9 48.1-9.5 70.1-9.7 15.9-24.1 26.4-41.9 32.5-11.2 3.9-22.8 5.5-35.1 5.5zm39.5-85.7c-0.4-2.7-0.7-7.3-1.9-11.5-4.1-14.8-13.6-24.6-29.2-27.3-15.4-2.6-29 1.2-38.6 14-8.3 11.2-9.7 24.1-6.8 37.3 6.6 30.4 38.4 35.9 57.4 25 13.9-8 18.5-20.9 19.1-37.5z"/>
					</g>
					<g id="g26">
						<path id="path28" fill-rule="evenodd" class="s0" d="m1223.7 341.3h-51.6c-2.5-6.2-5.1-12.5-7.4-18.8-0.9-2.5-2.2-3.2-4.8-3.2q-30.5 0.2-61 0c-2.6 0-3.7 0.8-4.6 3.2-2.3 6.3-4.9 12.5-7.4 18.8h-51.6c2.8-6.6 5.6-12.9 8.4-19.2 20.4-46.3 40.9-92.6 61.2-139 1.3-2.8 2.6-4.2 6.1-4.1 12.8 0.3 25.6 0.2 38.4 0.1 2.3-0.1 3.2 0.7 4 2.7 22.9 52 45.9 103.9 68.8 155.9 0.5 1.1 0.9 2.2 1.5 3.6zm-112.9-61.3h37.2c-6.2-15.8-12.1-31.3-18.4-47.5-6.4 16.3-12.6 31.7-18.8 47.5z"/>
					</g>
					<g id="g30">
						<path id="path32" class="s0" d="m960.5 278.6c2.7-6.5 5.3-12.8 7.9-19.1q15.6-38.4 31.2-76.8c0.6-1.5 1.1-2.8 3.3-2.8 17 0.1 33.9 0.1 50.8 0.1 0.3 0 0.6 0.1 1.3 0.2-2.5 5.9-5 11.7-7.5 17.4q-30.3 70.6-60.7 141.3c-0.7 1.8-1.7 2.6-3.8 2.5q-22.3-0.1-44.6 0c-2 0-3.1-0.5-3.9-2.4-22.3-52-44.8-103.9-67.2-155.9-0.4-0.9-0.7-1.8-1.1-2.9 1.2-0.1 2.1-0.2 3-0.2 16.1 0 32.2 0 48.2-0.1 2.6 0 3.6 0.9 4.5 3.1 12.5 31.3 25.1 62.6 37.6 93.9 0.2 0.4 0.5 0.9 1 1.7z"/>
					</g>
					<g id="g34">
						<path id="path36" class="s0" d="m350.2 220.7v27.4h64v42.1h-64.1v51h-48.7v-161.1h124.3v40.6z"/>
					</g>
					<path id="path38" class="s0" d="m489.4 341.2h-48.4v-161h48.4z"/>
					<g id="g40">
						<path id="path42" class="s1" d="m244.8 335.4v163l-236.5-163v-163z"/>
					</g>
					<g id="g44">
						<path id="path46" class="s0" d="m8.3 172.4v163l236.5-163.4v-162.7z"/>
					</g>
				</g>
			</g>
		</g>
	</g>
</svg>