<?xml version="1.0" encoding="utf-8"?>
<!-- Generator: Adobe Illustrator 26.5.0, SVG Export Plug-In . SVG Version: 6.00 Build 0)  -->
<svg version="1.1" id="Layer_1" xmlns="http://www.w3.org/2000/svg" xmlns:xlink="http://www.w3.org/1999/xlink" x="0px" y="0px"
	 viewBox="0 0 563.1 101" style="enable-background:new 0 0 563.1 101;" xml:space="preserve">
<style type="text/css">
	.st0{fill-rule:evenodd;clip-rule:evenodd;fill:#E37524;}
</style>
<g>
	<g>
		<path class="st0" d="M537.8,22.7c-15.4-6.2-33.6-0.3-56.2-2.4c-0.7,0.1-0.7,0.9-0.6,1.8c3.4,18.9-5.3,54.9,1.8,69.9
			c5.2,11.1,29,12.3,46,10.2c15.4-2,28.3-15.1,32.3-27.5C567.9,53.5,556.7,30.3,537.8,22.7z M530,80.7c-8.1,3-16,0.2-28.1,1.2
			c0.4-13.6-0.8-28.7,0.6-41.2c10.3,0.8,20-1.6,27.5,1.2C546.4,47.9,548,74,530,80.7z M220.5,55c-2.3-22.2-21.3-37.1-43.6-35.8
			c-17.6,1-32.4,13.3-37.1,28.1c-4.6,14.7-0.2,33.6-1.8,53.8c11.4-1.5,16.8-4,19.7-11.4c3.9-9.9-1.3-24.6,1.8-35.9
			c4.5-16.7,32.7-21.6,39.4-0.6c3.1,9.6-1.1,25.1,1.8,35.3c2.3,7.8,9.3,11.7,19.7,12.6C219.5,84,221.9,68.5,220.5,55z M90.8,60.4
			c0.3,13,27.9,12.9,35.9,4.2c3-3.3,4.1-8.6,4.8-14.3C116.8,52,90.5,44.4,90.8,60.4z M65.1,65.7c3.2,28.2,29.8,38.9,66.3,35.3
			c-0.8-9.8-4.2-16.8-11.3-19.1c-7.9-2.6-16.5,0.4-22.7-2.4C80.8,72,82.5,45.8,99.2,40c7.6-2.7,16.1,0.2,22.1-2.4
			c6.8-2.9,9.2-9.8,10.2-18.5C91.3,13.2,61.3,31.7,65.1,65.7z M55,81.9c-6.4-1.9-14.1,0.6-20.9-1.8c-18.6-6.5-16.6-34.2,0.6-40
			c6.6-2.2,13.9-0.1,19.7-1.8c8.5-2.5,11.1-9.1,12-19.1C27.7,14.2,0.2,29.3,0,59.8C-0.3,92,27.2,105.1,66.3,101
			C65.2,90.2,62.8,84.2,55,81.9z M282.6,81.9c-7.6-2-15,0.5-21.5-2.4c-8.1-3.6-13.7-14.5-11.3-26.3c19.9,1.4,37.2,0.2,35.9-19.7
			c-12-0.4-25.5,0.8-36.5-0.6c2-19.5-2.3-32.7-19.7-32.9c-0.7,0.1-0.7,1-0.6,1.8c1.5,22.3-2,43.8,0,63.3c3.1,29.7,29.7,39,66.3,35.9
			C294.6,90.7,290.7,84,282.6,81.9z M366.3,19.1c-26-1.9-44.6,1.4-55.6,13.1C297,47,300,71.7,300,101c9.9-0.6,17-4.5,19.7-11.4
			c5.3-13.7-1.4-27.5,2.4-37.6c2-5.3,7.3-10.1,12.5-12c9.9-3.4,20.5,0.6,26.9-6C365,30.5,365.8,27.5,366.3,19.1z M394.4,19.7
			C376.9,21.4,365.3,32,360.3,43c-13,28.6,9.2,58,37.6,58c18.3,0,36.4-12.2,40.6-31.1C445.3,40.3,421.8,17.2,394.4,19.7z
			 M390.8,80.1c-20.4-7.2-15.4-38,4.8-40.6c12.1-1.5,23.1,6,23.3,20.3C419.1,74,405.8,85.4,390.8,80.1z M447,19.1
			c-0.7,0.1-0.6,0.9-0.6,1.8c4.2,29.4-13.1,80.4,20.9,80.1C463,71.2,480.2,20,447,19.1z"/>
	</g>
</g>
</svg>
