<?xml version="1.0" encoding="UTF-8"?>
<svg version="1.1" xmlns="http://www.w3.org/2000/svg" width="199" height="115">
<path d="M0 0 C15.51 0 31.02 0 47 0 C47 3.96 47 7.92 47 12 C50.96 12 54.92 12 59 12 C59 27.51 59 43.02 59 59 C39.53 59 20.06 59 0 59 C0 39.53 0 20.06 0 0 Z M13 13 C13 23.89 13 34.78 13 46 C23.89 46 34.78 46 46 46 C46 35.11 46 24.22 46 13 C35.11 13 24.22 13 13 13 Z " fill="#FFFFFF" transform="translate(70,13)"/>
<path d="M0 0 C13 0 13 0 18 3 C18.3125 6.5 18.3125 6.5 18 10 C18 10.99 18 11.98 18 13 C18.33 13.33 18.66 13.66 19 14 C19.58542413 20.20549582 19.58542413 20.20549582 17.25 23.375 C11.85911931 27.26841383 6.8275953 26 0 26 C0 17.42 0 8.84 0 0 Z M6 6 C6 7.32 6 8.64 6 10 C7.65 10 9.3 10 11 10 C11 8.68 11 7.36 11 6 C9.35 6 7.7 6 6 6 Z M6 15 C6 16.65 6 18.3 6 20 C9.465 19.505 9.465 19.505 13 19 C12.34 17.68 11.68 16.36 11 15 C9.35 15 7.7 15 6 15 Z " fill="#FFFFFF" transform="translate(128,88)"/>
<path d="M0 0 C3.25 -0.375 3.25 -0.375 7 0 C9.4375 3 9.4375 3 11 6 C11.495 5.01 11.99 4.02 12.5 3 C15 0 15 0 17.046875 -0.3984375 C19.25 -0.375 19.25 -0.375 23 0 C22.65066406 0.59167969 22.30132812 1.18335937 21.94140625 1.79296875 C21.48636719 2.58316406 21.03132813 3.37335938 20.5625 4.1875 C20.11003906 4.96480469 19.65757813 5.74210937 19.19140625 6.54296875 C17.91166757 9.18216753 17.14553793 11.06195309 17 14 C18.3923123 16.69117755 18.3923123 16.69117755 20.4375 19.1875 C24 23.83757339 24 23.83757339 24 26 C20.8125 26.4375 20.8125 26.4375 17 26 C15.3524616 24.29697455 14.23214798 22.57680062 13.04296875 20.53125 C12.69878906 20.0259375 12.35460938 19.520625 12 19 C11.34 19 10.68 19 10 19 C8.68 21.31 7.36 23.62 6 26 C3.36 26 0.72 26 -2 26 C-0.85777902 22.34489286 0.83977703 19.90547427 3.25 17 C4.85261594 14.99482679 4.85261594 14.99482679 6 13 C5.80672897 10.26493879 5.80672897 10.26493879 4 8 C0 2 0 2 0 0 Z " fill="#FFFFFF" transform="translate(28,88)"/>
<path d="M0 0 C1.98 0 3.96 0 6 0 C6.04898438 1.03640625 6.09796875 2.0728125 6.1484375 3.140625 C6.22349597 4.51044208 6.29904247 5.88023248 6.375 7.25 C6.4059375 7.93191406 6.436875 8.61382812 6.46875 9.31640625 C6.68259374 12.98739038 7.01077055 15.86251616 9 19 C10.65 19 12.3 19 14 19 C15.6498007 15.70039859 15.38258361 12.00872116 15.5625 8.375 C15.60568359 7.57320313 15.64886719 6.77140625 15.69335938 5.9453125 C15.79951457 3.9637489 15.90026855 1.98189729 16 0 C17.98 0 19.96 0 22 0 C22.11667875 3.22886009 22.18740546 6.45717445 22.25 9.6875 C22.30027344 11.05551758 22.30027344 11.05551758 22.3515625 12.45117188 C22.41447027 16.77608078 22.41821932 19.29492511 20.171875 23.08203125 C16.75658808 26.09804901 13.5496362 26.33864911 9.0703125 26.2890625 C5.67290042 25.81470685 3.55910785 24.18460426 1 22 C0.05862745 19.17588235 -0.11725382 17.47081968 -0.09765625 14.55078125 C-0.09443359 13.70322266 -0.09121094 12.85566406 -0.08789062 11.98242188 C-0.07951172 11.10134766 -0.07113281 10.22027344 -0.0625 9.3125 C-0.05798828 8.41982422 -0.05347656 7.52714844 -0.04882812 6.60742188 C-0.03704983 4.40488013 -0.02060164 2.20247401 0 0 Z " fill="#FFFFFF" transform="translate(93,88)"/>
<path d="M0 0 C1.44246094 0.00966797 1.44246094 0.00966797 2.9140625 0.01953125 C5.375 0.1875 5.375 0.1875 7.375 1.1875 C7.375 3.4975 7.375 5.8075 7.375 8.1875 C6.385 7.8575 5.395 7.5275 4.375 7.1875 C1.6605206 6.85366282 -0.91534783 6.78753055 -3.625 7.1875 C-5.86108998 8.66880668 -5.86108998 8.66880668 -6.625 11.1875 C-6.63174926 14.31430099 -6.63174926 14.31430099 -5.625 17.1875 C-2.13564529 19.51373648 -0.72017402 19.43822494 3.375 19.1875 C5.64066343 18.74808477 5.64066343 18.74808477 7.375 18.1875 C7.375 20.4975 7.375 22.8075 7.375 25.1875 C2.42162639 26.83862454 -2.5889362 27.04717138 -7.4375 25 C-13.30156016 20.14120729 -13.30156016 20.14120729 -14.01171875 15.8515625 C-14.25936188 10.1643099 -13.55981125 6.5595125 -9.625 2.1875 C-6.38493843 0.11470952 -3.8066884 -0.05643339 0 0 Z " fill="#FFFFFF" transform="translate(190.625,87.8125)"/>
<path d="M0 0 C1.44246094 0.00966797 1.44246094 0.00966797 2.9140625 0.01953125 C5.375 0.1875 5.375 0.1875 7.375 1.1875 C7.375 3.4975 7.375 5.8075 7.375 8.1875 C6.385 7.8575 5.395 7.5275 4.375 7.1875 C1.6605206 6.85366282 -0.91534783 6.78753055 -3.625 7.1875 C-5.86108998 8.66880668 -5.86108998 8.66880668 -6.625 11.1875 C-6.63174926 14.31430099 -6.63174926 14.31430099 -5.625 17.1875 C-2.13564529 19.51373648 -0.72017402 19.43822494 3.375 19.1875 C5.64066343 18.74808477 5.64066343 18.74808477 7.375 18.1875 C7.375 20.4975 7.375 22.8075 7.375 25.1875 C3.30720306 26.54343231 -0.37168259 26.71825585 -4.625 26.1875 C-8.61180167 24.12026951 -11.24069183 21.97233303 -13.625 18.1875 C-14.53455744 13.22180802 -14.12877381 9.19504761 -11.875 4.6875 C-8.20202395 0.6064155 -5.42936627 -0.08048926 0 0 Z " fill="#FFFFFF" transform="translate(73.625,87.8125)"/>
<path d="M0 0 C5.28 0 10.56 0 16 0 C16 1.98 16 3.96 16 6 C12.7 6 9.4 6 6 6 C6 7.32 6 8.64 6 10 C8.97 10 11.94 10 15 10 C15 11.98 15 13.96 15 16 C12.03 16 9.06 16 6 16 C6 19.3 6 22.6 6 26 C4.02 26 2.04 26 0 26 C0 17.42 0 8.84 0 0 Z " fill="#FFFFFF" transform="translate(1,88)"/>
<path d="M0 0 C4.29 0 8.58 0 13 0 C13 4.29 13 8.58 13 13 C8.71 13 4.42 13 0 13 C0 8.71 0 4.42 0 0 Z " fill="#638C24" transform="translate(127,1)"/>
<path d="M0 0 C1.98 0 3.96 0 6 0 C6 8.58 6 17.16 6 26 C4.02 26 2.04 26 0 26 C0 17.42 0 8.84 0 0 Z " fill="#FFFFFF" transform="translate(159,88)"/>
</svg>
