<?xml version="1.0" encoding="utf-8"?>
<!-- Generator: Adobe Illustrator 23.1.0, SVG Export Plug-In . SVG Version: 6.00 Build 0)  -->
<svg version="1.1" id="Layer_1" xmlns="http://www.w3.org/2000/svg" xmlns:xlink="http://www.w3.org/1999/xlink" x="0px" y="0px"
	 viewBox="0 0 198 60" style="enable-background:new 0 0 198 60;" xml:space="preserve">
<style type="text/css">
	.st0{fill:#91C5EB;}
	.st1{fill:#689AD0;}
	.st2{fill:#FFFFFF;}
	.st3{fill:url(#SVGID_1_);}
</style>
<g>
	<polyline class="st0" points="167.23,4.03 154.74,22.82 159.55,30.26 172.15,11.54 167.23,4.03 	"/>
	<polyline class="st0" points="125.43,56.2 155.41,11.33 150.47,4.03 115.59,56.2 125.43,56.2 	"/>
	<polyline class="st1" points="175.04,40.2 150.47,3.9 145.5,11.33 164.93,40.29 175.04,40.2 	"/>
	<polyline class="st1" points="167.23,4.03 162.3,11.45 181.2,40.29 191,40.29 167.23,4.03 	"/>
	<polyline class="st1" points="135.85,4.87 125.94,4.87 149.62,40.29 159.56,40.25 135.85,4.87 	"/>
	<path class="st1" d="M61.18,10.46c-0.96,0-1.76-0.32-2.4-0.96c-0.64-0.64-0.96-1.44-0.96-2.4c0-0.96,0.32-1.75,0.96-2.37
		c0.64-0.62,1.44-0.93,2.4-0.93c0.96,0,1.76,0.31,2.4,0.93c0.64,0.62,0.96,1.41,0.96,2.37c0,0.97-0.32,1.76-0.96,2.4
		C62.94,10.15,62.14,10.46,61.18,10.46"/>
	<path class="st2" d="M14.85,4.03h11c2.45,0,4.63,0.46,6.52,1.37c1.89,0.92,3.38,2.23,4.45,3.94c1.07,1.71,1.61,3.71,1.61,6.01
		c0,2.24-0.51,4.22-1.54,5.94c-1.02,1.73-2.49,3.08-4.4,4.05c-1.91,0.98-4.14,1.47-6.69,1.47h-5.36v12.63h-5.59V4.03 M20.44,22.06
		h4.52c2.55,0,4.47-0.56,5.78-1.68c1.31-1.12,1.96-2.77,1.96-4.94c0-2.17-0.66-3.83-1.98-4.96c-1.32-1.13-3.24-1.7-5.76-1.7h-4.52
		V22.06z"/>
	<path class="st2" d="M41.27,15.91h5.13l0.04,3.96c0.65-1.4,1.56-2.47,2.73-3.22c1.16-0.75,2.51-1.12,4.03-1.12
		c0.4,0,0.87,0.05,1.4,0.14c0.53,0.1,0.98,0.22,1.35,0.37l-0.51,5.03c-0.87-0.37-1.8-0.56-2.8-0.56c-1.9,0-3.37,0.69-4.43,2.07
		c-1.05,1.38-1.58,3.3-1.58,5.75v11.09h-5.36V15.91"/>
	<rect x="58.83" y="15.91" class="st2" width="5.36" height="23.53"/>
	<path class="st2" d="M69.07,15.91h5.13l0.05,3.03c0.65-1.21,1.62-2.14,2.89-2.8c1.27-0.65,2.78-0.98,4.52-0.98
		c1.71,0,3.18,0.37,4.4,1.1c1.23,0.73,2.18,1.79,2.87,3.19c0.71-1.34,1.77-2.38,3.17-3.15c1.4-0.76,2.95-1.14,4.66-1.14
		c2.86,0,5.04,0.86,6.55,2.60c1.51,1.72,2.26,4.2,2.26,7.43v14.26h-5.36V26.17c0-2.11-0.4-3.68-1.19-4.71
		c-0.79-1.02-2-1.54-3.61-1.54c-1.71,0-3.04,0.59-3.98,1.77c-0.95,1.18-1.42,2.83-1.42,4.94v12.81h-5.36V26.17
		c0-2.14-0.38-3.72-1.14-4.73c-0.76-1.01-1.97-1.51-3.61-1.51c-1.68,0-3.01,0.6-3.98,1.79c-0.98,1.2-1.47,2.82-1.47,4.87v12.86
		h-5.36V15.91"/>
	<path class="st2" d="M122.04,40.19c-2.67,0-5.02-0.49-7.04-1.47c-2.02-0.98-3.59-2.41-4.71-4.31c-1.12-1.89-1.68-4.12-1.68-6.66
		c0-2.39,0.49-4.54,1.47-6.43c0.98-1.89,2.37-3.39,4.17-4.5c1.8-1.1,3.88-1.66,6.24-1.66c2.14,0,4.04,0.47,5.71,1.4
		c1.66,0.93,2.96,2.28,3.89,4.05c0.93,1.77,1.4,3.84,1.4,6.2c0,1.18-0.06,2.07-0.19,2.66h-17.34c0.34,2.02,1.25,3.58,2.73,4.68
		c1.47,1.1,3.41,1.65,5.8,1.65c2.79,0,5.43-0.61,7.92-1.82l0.56,4.19c-1.15,0.62-2.52,1.11-4.1,1.47
		C125.3,40.01,123.69,40.19,122.04,40.19 M126.28,25.42c-0.13-1.93-0.7-3.42-1.72-4.47c-1.03-1.05-2.44-1.58-4.24-1.58
		c-1.77,0-3.21,0.53-4.33,1.58c-1.12,1.06-1.8,2.55-2.05,4.47H126.28z"/>
	<linearGradient id="SVGID_1_" gradientUnits="userSpaceOnUse" x1="14.8452" y1="53.4188" x2="191" y2="53.4188">
		<stop  offset="0" style="stop-color:#FFFFFF"/>
		<stop  offset="1" style="stop-color:#81BAE2"/>
	</linearGradient>
	<path class="st3" d="M127.91,56.1l3.51-5.37H191v5.37H127.91 M14.85,50.74v5.37h98.7l3.59-5.37H14.85"/>
</g>
</svg>
