<svg xmlns="http://www.w3.org/2000/svg" xmlns:xlink="http://www.w3.org/1999/xlink" viewBox="0 0 281 57">
  <defs>
    <style>
      .cls-1 {
        fill: url(#linear-gradient);
      }

      .cls-2 {
        fill: url(#linear-gradient-2);
      }

      .cls-3 {
        fill: url(#linear-gradient-3);
      }

      .cls-4 {
        fill: url(#linear-gradient-4);
      }

      .cls-5 {
        fill: url(#linear-gradient-5);
      }

      .cls-6 {
        fill: url(#linear-gradient-6);
      }

      .cls-7 {
        fill: url(#linear-gradient-7);
      }

      .cls-8 {
        fill: url(#linear-gradient-8);
      }

      .cls-9 {
        fill: url(#linear-gradient-9);
      }

      .cls-10 {
        fill: url(#linear-gradient-10);
      }

      .cls-11 {
        fill: #00688c;
      }

      .cls-12 {
        fill: url(#linear-gradient-11);
      }

      .cls-13 {
        fill: url(#linear-gradient-12);
      }

      .cls-14 {
        fill: url(#linear-gradient-13);
      }

      .cls-15 {
        fill: url(#linear-gradient-14);
      }

      .cls-16 {
        fill: url(#linear-gradient-15);
      }

      .cls-17 {
        fill: url(#linear-gradient-16);
      }

      .cls-18 {
        fill: url(#linear-gradient-17);
      }

      .cls-19 {
        fill: url(#linear-gradient-18);
      }

      .cls-20 {
        fill: url(#linear-gradient-19);
      }

      .cls-21 {
        fill: url(#linear-gradient-20);
      }

      .cls-22 {
        fill: url(#linear-gradient-21);
      }

      .cls-23 {
        fill: url(#linear-gradient-22);
      }

      .cls-24 {
        fill: url(#linear-gradient-23);
      }

      .cls-25 {
        fill: #41b2e5;
      }

      .cls-26 {
        fill: #4dd9ff;
      }

      .cls-27 {
        fill: none;
      }
    </style>
    <linearGradient id="linear-gradient" x1="12.62" y1="12.73" x2="29.36" y2="12.76" gradientUnits="userSpaceOnUse">
      <stop offset="0" stop-color="#d4ffd0"/>
      <stop offset="0.25" stop-color="#5cffef"/>
      <stop offset="0.5" stop-color="#45c8ff"/>
      <stop offset="0.74" stop-color="#005ce7"/>
      <stop offset="1" stop-color="#2d008b"/>
    </linearGradient>
    <linearGradient id="linear-gradient-2" x1="-3.12" y1="46.54" x2="13.65" y2="46.56" xlink:href="#linear-gradient"/>
    <linearGradient id="linear-gradient-3" x1="7.68" y1="51.01" x2="2.25" y2="-4.72" gradientUnits="userSpaceOnUse">
      <stop offset="0" stop-color="#56dbc1"/>
      <stop offset="1" stop-color="#e7f4bb"/>
    </linearGradient>
    <linearGradient id="linear-gradient-4" x1="8.77" y1="50.9" x2="3.34" y2="-4.82" xlink:href="#linear-gradient-3"/>
    <linearGradient id="linear-gradient-5" x1="8.65" y1="60.99" x2="3.22" y2="5.27" xlink:href="#linear-gradient-3"/>
    <linearGradient id="linear-gradient-6" x1="9.92" y1="54.19" x2="4.49" y2="-1.54" xlink:href="#linear-gradient-3"/>
    <linearGradient id="linear-gradient-7" x1="9.59" y1="59.26" x2="4.15" y2="3.53" xlink:href="#linear-gradient-3"/>
    <linearGradient id="linear-gradient-8" x1="9.77" y1="50.81" x2="4.33" y2="-4.92" xlink:href="#linear-gradient-3"/>
    <linearGradient id="linear-gradient-9" x1="12.6" y1="55.57" x2="29.37" y2="55.6" xlink:href="#linear-gradient"/>
    <linearGradient id="linear-gradient-10" x1="28.33" y1="46.46" x2="45.08" y2="46.49" xlink:href="#linear-gradient"/>
    <linearGradient id="linear-gradient-11" x1="11.01" y1="10.33" x2="39.37" y2="37.49" gradientUnits="userSpaceOnUse">
      <stop offset="0" stop-color="#e7f4bb"/>
      <stop offset="0.33" stop-color="#56dbc1"/>
      <stop offset="0.67" stop-color="#41b2e5"/>
      <stop offset="1" stop-color="#0081bd"/>
    </linearGradient>
    <linearGradient id="linear-gradient-12" x1="20.81" y1="13.82" x2="40.13" y2="30.11" xlink:href="#linear-gradient-11"/>
    <linearGradient id="linear-gradient-13" x1="19.63" y1="15.22" x2="38.94" y2="31.52" xlink:href="#linear-gradient-11"/>
    <linearGradient id="linear-gradient-14" x1="13.01" y1="8.24" x2="41.37" y2="35.4" xlink:href="#linear-gradient-11"/>
    <linearGradient id="linear-gradient-15" x1="18.33" y1="11.89" x2="37.64" y2="28.18" xlink:href="#linear-gradient-11"/>
    <linearGradient id="linear-gradient-16" x1="-7.34" y1="27.3" x2="17" y2="55.06" gradientUnits="userSpaceOnUse">
      <stop offset="0" stop-color="#56dbc1"/>
      <stop offset="0.5" stop-color="#41b2e5"/>
      <stop offset="1" stop-color="#0081bd"/>
    </linearGradient>
    <linearGradient id="linear-gradient-17" x1="-7.44" y1="22.05" x2="16.9" y2="49.81" xlink:href="#linear-gradient-16"/>
    <linearGradient id="linear-gradient-18" x1="-4.46" y1="30.51" x2="19.88" y2="58.28" xlink:href="#linear-gradient-16"/>
    <linearGradient id="linear-gradient-19" x1="41.5" y1="38.5" x2="1.06" y2="64.25" xlink:href="#linear-gradient-16"/>
    <linearGradient id="linear-gradient-20" x1="41.26" y1="38.12" x2="0.82" y2="63.88" xlink:href="#linear-gradient-16"/>
    <linearGradient id="linear-gradient-21" x1="36.95" y1="40.87" x2="-3.49" y2="66.62" xlink:href="#linear-gradient-16"/>
    <linearGradient id="linear-gradient-22" x1="40.31" y1="36.64" x2="-0.13" y2="62.39" xlink:href="#linear-gradient-16"/>
    <linearGradient id="linear-gradient-23" x1="41.04" y1="37.78" x2="0.6" y2="63.53" xlink:href="#linear-gradient-16"/>
  </defs>
  <title>yourbourse_logo</title>
  <g id="Layer_2" data-name="Layer 2">
    <g id="Layer_1-2" data-name="Layer 1">
      <g>
        <g id="_Group_" data-name="&lt;Group&gt;">
          <path id="_Path_" data-name="&lt;Path&gt;" class="cls-1" d="M18.26,12.82l.27-.16Z"/>
          <path id="_Path_2" data-name="&lt;Path&gt;" class="cls-2" d="M2.5,46.38a3.77,3.77,0,0,0,.56.32Z"/>
          <g id="_Group_2" data-name="&lt;Group&gt;">
            <polygon id="_Path_3" data-name="&lt;Path&gt;" class="cls-3" points="10.65 28.5 0.87 34.15 0.87 22.86 10.65 28.5"/>
            <polygon id="_Path_4" data-name="&lt;Path&gt;" class="cls-4" points="0.87 22.86 10.65 17.21 10.65 28.5 0.87 22.86"/>
            <polygon id="_Path_5" data-name="&lt;Path&gt;" class="cls-5" points="0.87 34.15 10.65 28.5 10.65 39.8 0.87 34.15"/>
            <path id="_Path_6" data-name="&lt;Path&gt;" class="cls-6" d="M9.08,5l-.8-.46L.87.27V11.56L3.52,10l6.63-3.83A3.83,3.83,0,0,0,9.08,5Z"/>
            <polygon id="_Path_7" data-name="&lt;Path&gt;" class="cls-7" points="10.65 17.21 0.87 22.86 0.87 11.56 10.65 17.21"/>
            <path id="_Path_8" data-name="&lt;Path&gt;" class="cls-8" d="M10.14,6.21,3.52,10,.87,11.56l9.78,5.65V8.09A3.8,3.8,0,0,0,10.14,6.21Z"/>
          </g>
          <path id="_Path_9" data-name="&lt;Path&gt;" class="cls-9" d="M18.63,55.69l-.38-.22A3.92,3.92,0,0,0,18.63,55.69Z"/>
          <path id="_Path_10" data-name="&lt;Path&gt;" class="cls-10" d="M38.09,46.55l.25-.14Z"/>
          <polygon id="_Path_11" data-name="&lt;Path&gt;" class="cls-11" points="40 34.15 30.22 39.8 30.22 28.5 40 34.15"/>
          <g id="_Group_3" data-name="&lt;Group&gt;">
            <path id="_Path_12" data-name="&lt;Path&gt;" class="cls-12" d="M18.53,12.66l-.27.16-7.6,4.39,9.78,5.65V12.14A3.8,3.8,0,0,0,18.53,12.66Z"/>
            <path id="_Path_13" data-name="&lt;Path&gt;" class="cls-13" d="M38.43,21.95l-.82-.47-7.4-4.27V28.5L32.86,27l6.63-3.83A3.85,3.85,0,0,0,38.43,21.95Z"/>
            <polygon id="_Path_14" data-name="&lt;Path&gt;" class="cls-14" points="20.44 22.86 30.22 17.21 30.22 28.5 20.44 22.86"/>
            <path id="_Path_15" data-name="&lt;Path&gt;" class="cls-15" d="M22.62,12.82l-.27-.15a3.8,3.8,0,0,0-1.91-.53V22.86l9.78-5.65Z"/>
            <path id="_Path_16" data-name="&lt;Path&gt;" class="cls-16" d="M39.49,23.15,32.86,27,30.22,28.5,40,34.15V25A3.8,3.8,0,0,0,39.49,23.15Z"/>
          </g>
          <g id="_Group_4" data-name="&lt;Group&gt;">
            <path id="_Path_17" data-name="&lt;Path&gt;" class="cls-17" d="M8,41.32,1.39,45.15A3.83,3.83,0,0,0,2.5,46.38l.56.32,7.59,4.38V39.8Z"/>
            <polygon id="_Path_18" data-name="&lt;Path&gt;" class="cls-18" points="20.44 45.45 10.65 51.09 10.65 39.8 20.44 45.45"/>
            <path id="_Path_19" data-name="&lt;Path&gt;" class="cls-19" d="M2.65,35.18A4,4,0,0,1,.87,31.87V43.25a3.8,3.8,0,0,0,.52,1.89L8,41.32l2.64-1.52Z"/>
          </g>
          <g id="_Group_5" data-name="&lt;Group&gt;">
            <path id="_Path_20" data-name="&lt;Path&gt;" class="cls-20" d="M39.48,45.14l-6.63-3.83L30.22,39.8V51.09L38,46.63A3.89,3.89,0,0,0,39.48,45.14Z"/>
            <polygon id="_Path_21" data-name="&lt;Path&gt;" class="cls-21" points="20.44 45.45 30.22 39.8 30.22 51.09 20.44 45.45"/>
            <path id="_Path_22" data-name="&lt;Path&gt;" class="cls-22" d="M20.44,45.45V56.17a3.8,3.8,0,0,0,1.82-.48l.38-.22,7.59-4.38Z"/>
            <path id="_Path_23" data-name="&lt;Path&gt;" class="cls-23" d="M12.37,50.1a4,4,0,0,1-3.72-.19l9.59,5.56.38.22a3.8,3.8,0,0,0,1.81.47V45.45Z"/>
            <path id="_Path_24" data-name="&lt;Path&gt;" class="cls-24" d="M38,35.29l-7.8,4.5,2.63,1.52,6.63,3.83a3.8,3.8,0,0,0,.52-1.9V32.07A4,4,0,0,1,38,35.29Z"/>
          </g>
        </g>
        <g>
          <path class="cls-25" d="M50.91,21.5h4.71l6.65,11.39L68.52,21.5h4.55l-8.7,15.38v8.27H60V36.88Z"/>
          <path class="cls-25" d="M72,33.36q0-12,11.87-12,11.69,0,11.69,12t-11.69,12Q72.48,45.31,72,33.36Zm11.87,8.15q7.14,0,7.14-8.25t-7.14-8.12q-7.32,0-7.32,8.12T83.82,41.51Z"/>
          <path class="cls-25" d="M97.95,35.85V21.5h4.38V35.85q0,5.65,5.79,5.65t5.79-5.65V21.5h4.38V35.85q0,9.46-10.17,9.46T97.95,35.85Z"/>
          <path class="cls-25" d="M121.55,45.11V21.5h10.75q7.24,0,7.24,6.33,0,4.28-5.64,7.09l7.49,10.22h-5.52l-8.19-10.3v-2C131.86,32.13,135,30.5,135,28q0-2.61-2.94-2.61h-6V45.11Z"/>
        </g>
        <path class="cls-26" d="M153,45.14V21.5h11.08q6.75,0,6.75,5.51,0,4-4.4,5.77,4.69.88,4.7,5.37,0,7-7.39,7Zm10.55-3.8q2.91,0,2.91-3,0-3.69-4.35-3.69h-3.32V31.85c3.52-.1,7.76,0,7.46-4.56-.09-1.32-.82-2-2.45-2h-6.41v16Z"/>
        <path class="cls-26" d="M172.3,33.36q0-12,11.87-12,11.69,0,11.69,12t-11.69,12Q172.83,45.31,172.3,33.36Zm11.87,8.15q7.14,0,7.14-8.25t-7.14-8.12q-7.32,0-7.32,8.12T184.17,41.51Z"/>
        <path class="cls-26" d="M198.3,35.85V21.5h4.38V35.85q0,5.65,5.79,5.65t5.79-5.65V21.5h4.38V35.85q0,9.46-10.17,9.46T198.3,35.85Z"/>
        <path class="cls-26" d="M221.9,45.11V21.5h10.75q7.24,0,7.24,6.33,0,4.28-5.64,7.09l7.49,10.22h-5.52L228,34.84v-2c4.19-.72,7.28-2.34,7.28-4.88q0-2.61-2.94-2.61h-6V45.11Z"/>
        <path class="cls-26" d="M243.2,44.15v-4a22.89,22.89,0,0,0,8,1.32q5.44,0,5.44-3.64,0-2.65-3.34-2.65h-3.7q-7.26,0-7.26-6.61,0-7.27,10.33-7.27a24.14,24.14,0,0,1,7.52,1.16v4a21.39,21.39,0,0,0-7.52-1.32q-6,0-6,3.47,0,2.64,2.88,2.64h3.7q7.72,0,7.72,6.61,0,7.44-9.82,7.44A25.89,25.89,0,0,1,243.2,44.15Z"/>
        <path class="cls-26" d="M280,21.5v3.77H268.12v6H279.4v3.92H268.07v6.2h12.12v3.8H263.78V21.5Z"/>
        <rect id="_Slice_" data-name="&lt;Slice&gt;" class="cls-27" width="281" height="57"/>
      </g>
    </g>
  </g>
</svg>
